<svg viewBox="0 0 512 512" aria-hidden="true" xmlns="http://www.w3.org/2000/svg" width="1em" height="1em"><path d="M132.838 329.973a435.298 435.298 0 0016.769-9.004c13.363-7.574 26.587-16.142 37.419-25.507 7.544.597 15.27.925 23.098.925 54.905 0 105.634-15.311 143.285-41.28 23.728-16.365 43.115-37.692 54.155-62.645 54.739 22.205 91.498 63.272 91.498 110.286 0 42.186-29.558 79.498-75.09 102.828 23.46 49.216 75.09 101.709 75.09 101.709s-115.837-38.35-154.424-78.46c-9.956 1.12-20.297 1.758-30.793 1.758-88.727 0-162.927-43.071-181.007-100.61z"></path><path d="M383.371 132.502c0 70.603-82.961 127.787-185.216 127.787-10.496 0-20.837-.639-30.793-1.757-38.587 40.093-154.424 78.429-154.424 78.429s51.63-52.472 75.09-101.67c-45.532-23.321-75.09-60.619-75.09-102.79C12.938 61.9 95.9 4.716 198.155 4.716 300.41 4.715 383.37 61.9 383.37 132.502z"></path></svg>